<svg width="71" height="59" viewBox="0 0 71 59" fill="none" xmlns="http://www.w3.org/2000/svg">
<path d="M35.8724 0C21.1163 0 9.15363 11.9626 9.15363 26.7188C9.15195 29.7848 9.67882 32.8282 10.7111 35.7152C10.7105 35.7185 10.7105 35.7218 10.7111 35.7251V51.3435C15.6864 55.6987 25.1798 58.6423 36.0721 58.6423C46.2436 58.6423 55.1933 56.0739 60.3853 52.186V37.3774C60.4773 37.1707 60.5637 36.9626 60.6487 36.753C61.9372 33.5659 62.5969 30.1594 62.5912 26.7216C62.5912 11.9626 50.63 0 35.8724 0ZM53.5169 32.9514C53.29 33.6694 53.0176 34.3721 52.7014 35.0554C51.2277 38.2828 48.8573 41.0185 45.8726 42.9368C42.8879 44.855 39.4147 45.8748 35.8668 45.8748C32.3188 45.8748 28.8456 44.855 25.861 42.9368C22.8763 41.0185 20.5059 38.2828 19.0321 35.0554C17.9314 32.6434 17.3625 30.0228 17.3642 27.3715C17.3684 24.7055 17.9486 22.0719 19.0652 19.651C20.1818 17.2301 21.8084 15.0791 23.8336 13.3453C25.8587 11.6115 28.2347 10.3357 30.7987 9.6055C33.3627 8.87526 36.0543 8.70773 38.6891 9.11439C41.3239 9.52106 43.8396 10.4923 46.0642 11.9616C48.2887 13.431 50.1695 15.3637 51.5776 17.6274C52.9858 19.8912 53.8881 22.4325 54.2229 25.0774C54.5576 27.7223 54.3168 30.4083 53.5169 32.9514Z" fill="#00923F"/>
<path d="M54.3734 27.3716C54.3749 29.2644 54.086 31.1463 53.5168 32.9515C53.2902 33.6695 53.0178 34.3723 52.7013 35.0555C51.2276 38.2829 48.8572 41.0186 45.8725 42.9368C42.8878 44.8551 39.4146 45.8749 35.8667 45.8749C32.3187 45.8749 28.8455 44.8551 25.8609 42.9368C22.8762 41.0186 20.5058 38.2829 19.032 35.0555C18.7401 34.417 18.4862 33.7617 18.2717 33.0931C17.4479 30.5499 17.1849 27.8583 17.501 25.2037C17.8171 22.5491 18.7046 19.9945 20.1026 17.7158C21.5005 15.4371 23.3757 13.4884 25.599 12.0038C27.8222 10.5192 30.3408 9.53408 32.9813 9.11616C35.6218 8.69824 38.3215 8.85747 40.8945 9.5829C43.4676 10.3083 45.8528 11.5827 47.8862 13.3183C49.9195 15.054 51.5526 17.2096 52.673 19.6369C53.7934 22.0641 54.3745 24.7053 54.3763 27.3787L54.3734 27.3716Z" fill="white"/>
<path d="M16.407 22.4344C16.3884 22.49 16.3589 22.5413 16.3202 22.5853C16.2814 22.6294 16.2343 22.6652 16.1816 22.6908C16.1288 22.7164 16.0715 22.7312 16.013 22.7343C15.9544 22.7374 15.8958 22.7289 15.8407 22.709L11.6412 21.2734C11.5851 21.2553 11.5331 21.2262 11.4883 21.1878C11.4436 21.1494 11.407 21.1024 11.3806 21.0497C11.3542 20.9969 11.3386 20.9395 11.3348 20.8806C11.3309 20.8218 11.3388 20.7628 11.358 20.707L11.7828 19.4809C11.7927 19.4511 12.5063 17.3358 15.0393 18.1995C17.5723 19.0632 16.8417 21.1728 16.8332 21.2026L16.407 22.4344ZM15.709 21.7264L15.9822 20.9265C16.0509 20.6835 16.0548 20.4267 15.9936 20.1817C15.8704 19.672 15.4442 19.294 14.7448 19.049C14.0453 18.8041 13.4592 18.8522 13.0457 19.2019C12.8598 19.353 12.7139 19.5475 12.621 19.7683L12.3491 20.5739L15.709 21.7264Z" fill="white"/>
<path d="M18.0452 17.3543L14.2224 15.0691C14.124 15.0078 14.0537 14.9104 14.0265 14.7977C13.9994 14.6851 14.0176 14.5663 14.0772 14.4669C14.1368 14.3676 14.2331 14.2956 14.3452 14.2665C14.4574 14.2375 14.5765 14.2537 14.6769 14.3116L18.4997 16.5968C18.5522 16.6252 18.5984 16.6638 18.6355 16.7105C18.6726 16.7572 18.6999 16.8109 18.7157 16.8684C18.7316 16.9259 18.7356 16.9861 18.7275 17.0452C18.7195 17.1043 18.6995 17.1611 18.6689 17.2123C18.6383 17.2635 18.5976 17.3079 18.5494 17.343C18.5011 17.378 18.4462 17.4029 18.3881 17.4162C18.3299 17.4295 18.2697 17.4308 18.211 17.4202C18.1523 17.4096 18.0964 17.3872 18.0466 17.3543H18.0452Z" fill="white"/>
<path d="M21.8128 12.89L17.8356 12.3321L20.0613 14.4035C20.1464 14.4852 20.1959 14.5972 20.199 14.7151C20.2022 14.833 20.1589 14.9474 20.0783 15.0336C19.9983 15.1191 19.8878 15.1694 19.7708 15.1737C19.6538 15.1779 19.5399 15.1357 19.4539 15.0562L16.1974 12.0249C16.1283 11.9605 16.0814 11.8758 16.0638 11.783C16.0462 11.6902 16.0587 11.5942 16.0995 11.509C16.1403 11.4238 16.2072 11.3538 16.2905 11.3093C16.3739 11.2649 16.4692 11.2482 16.5627 11.2617L20.5399 11.8196L18.3142 9.74957C18.2316 9.66808 18.184 9.55761 18.1815 9.4416C18.179 9.3256 18.2219 9.21319 18.3009 9.12825C18.3799 9.04331 18.489 8.99251 18.6049 8.98665C18.7208 8.98079 18.8344 9.02032 18.9216 9.09686L22.1781 12.1282C22.2625 12.2088 22.3122 12.3192 22.3164 12.4358C22.3207 12.5525 22.2791 12.6662 22.2007 12.7526C22.1524 12.8057 22.0916 12.846 22.024 12.8699C21.9563 12.8939 21.8837 12.9008 21.8128 12.89Z" fill="white"/>
<path d="M26.4101 9.58968L22.7444 7.95011L24.3019 10.5567C24.3587 10.6579 24.3739 10.7773 24.3441 10.8895C24.3144 11.0017 24.242 11.0979 24.1425 11.1576C24.043 11.2173 23.9241 11.2359 23.8111 11.2093C23.6981 11.1828 23.5999 11.1133 23.5373 11.0155L21.2549 7.20395C21.225 7.15368 21.2053 7.098 21.1969 7.04009C21.1885 6.98218 21.1917 6.92319 21.2061 6.8665C21.2206 6.8098 21.2461 6.75652 21.2812 6.70971C21.3163 6.6629 21.3603 6.62348 21.4107 6.59371C21.4716 6.55809 21.5402 6.53769 21.6107 6.53424C21.6812 6.53079 21.7515 6.54439 21.8156 6.57389L25.4813 8.21204L23.9239 5.60544C23.87 5.50442 23.8571 5.38657 23.8877 5.27628C23.9184 5.16599 23.9903 5.07171 24.0885 5.01295C24.1868 4.95419 24.3038 4.93546 24.4155 4.96061C24.5272 4.98577 24.6249 5.0529 24.6884 5.14811L26.975 8.96245C27.0342 9.06318 27.0514 9.18309 27.0231 9.2964C26.9948 9.40971 26.9231 9.50739 26.8235 9.56844C26.7617 9.60572 26.6916 9.62716 26.6195 9.63087C26.5474 9.63457 26.4755 9.62043 26.4101 9.58968Z" fill="white"/>
<path d="M31.3389 2.96893C31.3606 3.0591 31.3552 3.15368 31.3233 3.24078L30.4313 5.64775L30.958 7.66677C30.9822 7.77915 30.9621 7.89654 30.9019 7.99445C30.8416 8.09235 30.7459 8.16322 30.6347 8.19226C30.5234 8.2213 30.4053 8.20627 30.3049 8.15031C30.2045 8.09434 30.1295 8.00177 30.0957 7.8919L29.569 5.87287L27.6151 4.20923C27.5451 4.15909 27.495 4.08591 27.4735 4.00251C27.4455 3.91117 27.4477 3.8132 27.4799 3.72322C27.512 3.63324 27.5724 3.55607 27.652 3.50321C27.7316 3.45036 27.8262 3.42464 27.9216 3.42991C28.017 3.43518 28.1082 3.47115 28.1815 3.53245L29.7644 4.87469L30.4936 2.93495C30.5174 2.86629 30.5578 2.80455 30.6111 2.75517C30.6645 2.70579 30.7291 2.67028 30.7994 2.65178C30.8874 2.63072 30.9796 2.63664 31.0642 2.66877C31.1307 2.69312 31.1903 2.73311 31.2381 2.78534C31.2859 2.83758 31.3205 2.90055 31.3389 2.96893Z" fill="white"/>
<path d="M38.3232 6.89949C37.9357 6.30712 37.7994 5.58507 37.9442 4.89218C38.0891 4.19929 38.5032 3.59232 39.0956 3.20479C39.688 2.81726 40.41 2.68093 41.1029 2.82577C41.7958 2.97062 42.4028 3.38478 42.7903 3.97715C42.8212 4.02429 42.8421 4.07722 42.8518 4.13272C42.8616 4.18823 42.8599 4.24513 42.8469 4.29996C42.8355 4.35749 42.8127 4.41216 42.7798 4.46078C42.747 4.50939 42.7048 4.55099 42.6558 4.58314C42.6077 4.61601 42.5533 4.63864 42.496 4.6496C42.4388 4.66056 42.3799 4.65962 42.3231 4.64685C42.265 4.63692 42.2097 4.61474 42.1609 4.58178C42.112 4.54882 42.0708 4.50585 42.0399 4.45571C41.9107 4.26024 41.7441 4.09228 41.5497 3.96154C41.3553 3.8308 41.1369 3.73986 40.9072 3.69397C40.6788 3.64497 40.443 3.64202 40.2135 3.68529C39.984 3.72857 39.7654 3.8172 39.5706 3.946C39.3741 4.07281 39.2048 4.23747 39.0725 4.43038C38.9402 4.62328 38.8477 4.84058 38.8003 5.06961C38.7528 5.29864 38.7514 5.53482 38.7962 5.76438C38.8409 5.99395 38.9309 6.21232 39.0609 6.40677C39.187 6.60372 39.3514 6.77336 39.5442 6.90566C39.7371 7.03796 39.9545 7.13023 40.1837 7.177C40.5864 7.26032 41.0056 7.20179 41.3702 7.01135L41.5613 6.09386L40.4711 5.86733C40.4125 5.85656 40.3567 5.83406 40.3071 5.80119C40.2574 5.76831 40.2149 5.72574 40.1822 5.67602C40.1494 5.6263 40.127 5.57047 40.1163 5.51188C40.1057 5.45329 40.107 5.39315 40.1202 5.33507C40.1333 5.277 40.1581 5.22219 40.193 5.17394C40.2279 5.12569 40.2722 5.08499 40.3233 5.0543C40.3743 5.0236 40.431 5.00355 40.49 4.99533C40.549 4.98711 40.609 4.9909 40.6665 5.00648L42.1885 5.32222C42.2453 5.33402 42.2993 5.3569 42.3472 5.38954C42.3952 5.42218 42.4363 5.46396 42.4681 5.51247C42.4999 5.56099 42.5218 5.6153 42.5327 5.6723C42.5435 5.72929 42.543 5.78787 42.5312 5.84467L42.2126 7.38089C42.1878 7.49677 42.1187 7.59838 42.0201 7.66406C41.4279 8.05115 40.7066 8.18802 40.0138 8.04474C39.3211 7.90146 38.7132 7.4897 38.3232 6.89949Z" fill="white"/>
<path d="M46.7815 10.0865C46.7859 10.1448 46.7786 10.2034 46.7601 10.2588C46.7415 10.3142 46.712 10.3653 46.6733 10.4091C46.6346 10.4529 46.5876 10.4885 46.5349 10.5139C46.4822 10.5392 46.425 10.5537 46.3667 10.5566C46.2858 10.5628 46.2049 10.5461 46.133 10.5084C46.0662 10.473 46.0093 10.4214 45.9675 10.3584C45.9257 10.2953 45.9003 10.2228 45.8938 10.1474L45.7692 8.30678L45.1108 7.95422L44.4807 9.13081C44.4234 9.23378 44.3278 9.31007 44.2147 9.34318C44.1016 9.3763 43.98 9.36358 43.8762 9.30779C43.7728 9.25227 43.6958 9.15805 43.6618 9.04579C43.6278 8.93352 43.6397 8.81237 43.6949 8.70888L45.7947 4.77561C45.8502 4.67229 45.9444 4.5952 46.0567 4.56123C46.1689 4.52726 46.2901 4.53918 46.3936 4.59438L47.4611 5.16072C47.7223 5.31116 47.949 5.51471 48.1266 5.75822C48.5103 6.30191 48.54 6.93905 48.2016 7.57052C48.0522 7.83239 47.8485 8.05928 47.6041 8.23598C47.3349 8.42837 47.0133 8.53362 46.6824 8.53756L46.7815 10.0865ZM45.5313 7.16276L46.2024 7.52097C46.538 7.70078 46.8141 7.7022 47.0718 7.52946C47.2116 7.43239 47.329 7.30636 47.4158 7.15992C47.5956 6.82436 47.59 6.54402 47.4031 6.28067C47.3054 6.14814 47.181 6.03767 47.0378 5.95644L46.3667 5.59681L45.5313 7.16276Z" fill="white"/>
<path d="M50.6187 13.6277C50.5788 13.6705 50.5307 13.705 50.4773 13.7292C50.424 13.7534 50.3664 13.7668 50.3078 13.7686C50.2493 13.7704 50.1909 13.7607 50.1362 13.7399C50.0814 13.7191 50.0313 13.6877 49.9887 13.6475L48.199 11.9966C48.1555 11.9573 48.1203 11.9098 48.0952 11.8568C48.0702 11.8038 48.0558 11.7464 48.0531 11.6878C48.0503 11.6292 48.0592 11.5707 48.0791 11.5156C48.0991 11.4604 48.1297 11.4098 48.1693 11.3666L51.1908 8.10017C51.2307 8.0573 51.2788 8.02277 51.3322 7.99861C51.3857 7.97445 51.4433 7.96113 51.5019 7.95942C51.5605 7.95771 51.6189 7.96764 51.6736 7.98864C51.7284 8.00964 51.7784 8.0413 51.8208 8.08177L53.6105 9.73125C53.6552 9.77057 53.6916 9.81844 53.7175 9.87205C53.7435 9.92566 53.7584 9.98392 53.7615 10.0434C53.7645 10.1029 53.7556 10.1623 53.7353 10.2183C53.715 10.2743 53.6837 10.3257 53.6432 10.3694C53.6027 10.413 53.5539 10.4482 53.4997 10.4727C53.4454 10.4972 53.3868 10.5106 53.3272 10.5121C53.2677 10.5136 53.2085 10.5032 53.153 10.4814C53.0976 10.4596 53.0471 10.427 53.0045 10.3854L51.5391 9.0304L50.6343 10.0144L51.7755 11.0692C51.8617 11.1489 51.9127 11.2594 51.9174 11.3767C51.922 11.4939 51.8799 11.6082 51.8003 11.6944C51.7207 11.7805 51.6101 11.8316 51.4929 11.8362C51.3756 11.8408 51.2614 11.7987 51.1752 11.7191L50.034 10.6629L49.1293 11.6413L50.5947 12.9877C50.6391 13.0277 50.675 13.0761 50.7004 13.1302C50.7257 13.1843 50.7399 13.2429 50.7422 13.3026C50.7444 13.3623 50.7346 13.4219 50.7134 13.4777C50.6922 13.5335 50.66 13.5846 50.6187 13.6277Z" fill="white"/>
<path d="M53.5509 17.8088C53.5012 17.84 53.4458 17.8612 53.3879 17.871C53.33 17.8808 53.2708 17.879 53.2135 17.8659C53.1563 17.8527 53.1022 17.8284 53.0544 17.7943C53.0066 17.7602 52.966 17.717 52.935 17.6672L51.6126 15.6184C51.5803 15.5696 51.5579 15.5148 51.5468 15.4573C51.5357 15.3998 51.5361 15.3407 51.548 15.2833C51.5598 15.2259 51.5829 15.1715 51.6158 15.123C51.6488 15.0746 51.691 15.0332 51.74 15.0011L55.4765 12.5871C55.5261 12.5556 55.5815 12.5343 55.6394 12.5244C55.6974 12.5145 55.7567 12.5162 55.814 12.5294C55.8712 12.5425 55.9253 12.5669 55.9731 12.6011C56.0209 12.6353 56.0614 12.6787 56.0924 12.7286L57.4148 14.776C57.4477 14.8252 57.4704 14.8804 57.4818 14.9384C57.4931 14.9965 57.4928 15.0562 57.4808 15.1141C57.4688 15.1721 57.4455 15.227 57.412 15.2758C57.3786 15.3247 57.3358 15.3663 57.2862 15.3984C57.2365 15.4306 57.1809 15.4525 57.1227 15.4629C57.0645 15.4733 57.0048 15.4721 56.947 15.4592C56.8893 15.4464 56.8347 15.4221 56.7864 15.388C56.7381 15.3538 56.6971 15.3104 56.6658 15.2602L55.5827 13.5838L54.4627 14.3073L55.3122 15.6128C55.3437 15.6615 55.3654 15.7159 55.3758 15.773C55.3863 15.8301 55.3854 15.8886 55.3733 15.9454C55.3611 16.0021 55.3379 16.0559 55.3049 16.1036C55.272 16.1514 55.23 16.1922 55.1813 16.2237C55.1325 16.2552 55.0781 16.2768 55.021 16.2873C54.964 16.2978 54.9054 16.2969 54.8487 16.2848C54.7919 16.2726 54.7381 16.2494 54.6904 16.2164C54.6426 16.1835 54.6018 16.1415 54.5703 16.0927L53.7208 14.7873L52.6008 15.5108L53.684 17.1872C53.7167 17.2366 53.7392 17.2919 53.7503 17.3501C53.7613 17.4083 53.7606 17.4681 53.7482 17.526C53.7358 17.5839 53.7119 17.6387 53.6781 17.6873C53.6442 17.7358 53.6009 17.7772 53.5509 17.8088Z" fill="white"/>
<path d="M55.0857 22.4912L57.5351 19.3083L54.6354 20.2215C54.5224 20.2552 54.4007 20.243 54.2965 20.1877C54.1924 20.1323 54.1143 20.0382 54.079 19.9256C54.0437 19.8145 54.0536 19.6938 54.1066 19.5899C54.1596 19.486 54.2514 19.4072 54.3622 19.3706L58.6098 18.0354C58.6999 18.007 58.7969 18.0081 58.8863 18.0387C58.9758 18.0692 59.0532 18.1276 59.1071 18.2053C59.1611 18.2829 59.1888 18.3758 59.1861 18.4703C59.1835 18.5649 59.1507 18.6561 59.0926 18.7306L56.646 21.9078L59.5457 20.9946C59.6562 20.9663 59.7733 20.9814 59.873 21.0369C59.9727 21.0923 60.0474 21.1839 60.0817 21.2927C60.1159 21.4015 60.1072 21.5193 60.0573 21.6218C60.0074 21.7244 59.92 21.804 59.8133 21.8441L55.5657 23.1793C55.4756 23.2067 55.3792 23.2048 55.2904 23.174C55.2015 23.1431 55.1246 23.0849 55.071 23.0076C55.0173 22.9303 54.9895 22.838 54.9917 22.7439C54.9938 22.6498 55.0257 22.5589 55.0828 22.4841L55.0857 22.4912Z" fill="white"/>
<path d="M21.9614 26.5249L21.9416 26.9822L19.5573 26.8746L19.5771 26.4187L21.9614 26.5249Z" fill="#00923F"/>
<path d="M22.331 23.9495L20.6547 25.2436L22.0535 25.4956L21.9728 25.9444L19.6225 25.5197L19.6324 25.4715L21.3314 24.1817L19.9156 23.9254L19.9963 23.4766L22.3452 23.9013L22.331 23.9495Z" fill="#00923F"/>
<path d="M21.1275 21.2663L20.9151 21.9077L22.7982 22.5364L22.6566 22.971L20.7735 22.341L20.5611 22.9979L20.176 22.8691L20.7551 21.1389L21.1275 21.2663Z" fill="#00923F"/>
<path d="M21.6075 20.2963L22.137 20.5795L22.675 19.5573L23.0417 19.7498L22.5037 20.7735L23.0007 21.034L23.6067 19.8815L23.972 20.0726L23.1522 21.6301L21.0369 20.5186L21.8567 18.9612L22.2149 19.1495L21.6075 20.2963Z" fill="#00923F"/>
<path d="M24.4845 19.3278L24.2013 19.6931L22.3027 18.2518L22.9568 17.3853C23.0248 17.293 23.1099 17.2147 23.2074 17.1545C23.2962 17.0994 23.3956 17.0637 23.4991 17.0497C23.6029 17.0362 23.7084 17.0439 23.8092 17.0724C23.9182 17.1038 24.0205 17.1551 24.1107 17.2239C24.2467 17.3224 24.3498 17.4595 24.4066 17.6175C24.4589 17.7672 24.4633 17.9295 24.4194 18.0819C24.7535 18.0819 25.0867 18.0852 25.419 18.0918L25.0919 18.5265C24.9362 18.5265 24.779 18.5265 24.6233 18.5265L24.1518 18.5123L23.8785 18.8719L24.4845 19.3278ZM23.5543 18.6199L23.9338 18.1187C23.9596 18.0833 23.9788 18.0435 23.9904 18.0012C24.0047 17.9554 24.0091 17.9072 24.0031 17.8596C23.9958 17.8099 23.9795 17.7619 23.955 17.718C23.9245 17.6658 23.8835 17.6205 23.8346 17.5849C23.8009 17.5606 23.7654 17.5388 23.7284 17.5198C23.684 17.4979 23.6361 17.4841 23.5869 17.4787C23.534 17.4734 23.4806 17.4806 23.4311 17.5C23.3698 17.527 23.3173 17.5706 23.2796 17.626L22.9002 18.1272L23.5543 18.6199Z" fill="#00923F"/>
<path d="M27.1208 16.4849L24.997 16.5104L25.9612 17.5525L25.6271 17.8626L24.0045 16.1111L24.0399 16.0786L26.1736 16.0701L25.1924 15.011L25.528 14.7009L27.1506 16.4524L27.1208 16.4849Z" fill="#00923F"/>
<path d="M27.3459 16.2837L27.0967 13.6134L27.1364 13.5894L29.4457 14.95L29.0209 15.2162L28.6627 14.9981L27.7126 15.6027L27.7594 16.0176L27.3459 16.2837ZM27.6914 15.1511L28.2677 14.7858L27.5937 14.361L27.6914 15.1511Z" fill="#00923F"/>
<path d="M30.0135 12.5417L29.3948 12.8249L30.2344 14.6244L29.821 14.8283L28.9814 13.0302L28.3598 13.3204L28.1885 12.9523L29.8422 12.1807L30.0135 12.5417Z" fill="#00923F"/>
<path d="M31.656 14.092L31.2228 14.2336L30.4624 11.9682L30.8957 11.8267L31.656 14.092Z" fill="#00923F"/>
<path d="M33.304 13.7241C33.1424 13.7574 32.9757 13.7574 32.8141 13.7241C32.4998 13.6538 32.2242 13.4658 32.0439 13.1988C31.9523 13.0606 31.8893 12.9055 31.8586 12.7425C31.828 12.5796 31.8303 12.4122 31.8655 12.2502C31.8993 12.0935 31.9633 11.9449 32.0538 11.8127C32.144 11.681 32.2584 11.5676 32.3908 11.4785C32.5283 11.3866 32.683 11.3234 32.8455 11.2928C33.008 11.2621 33.1751 11.2646 33.3366 11.3001C33.6521 11.3696 33.9285 11.5583 34.1082 11.8268C34.2013 11.9633 34.2649 12.1176 34.2951 12.2799C34.3269 12.4433 34.3245 12.6116 34.2881 12.774C34.2188 13.0889 34.0306 13.3648 33.7628 13.5443C33.6241 13.6356 33.4678 13.6969 33.304 13.7241ZM32.9246 11.7051C32.8224 11.7252 32.7258 11.7672 32.6414 11.8282C32.5576 11.8877 32.486 11.9627 32.4304 12.0491C32.3744 12.1354 32.335 12.2315 32.3143 12.3323C32.2931 12.436 32.2931 12.5429 32.3143 12.6466C32.3331 12.7515 32.3736 12.8514 32.4333 12.9397C32.4898 13.0266 32.5618 13.1024 32.6457 13.1634C32.7308 13.225 32.8269 13.2697 32.9288 13.2951C33.0308 13.3206 33.1371 13.3235 33.2403 13.3036C33.3426 13.2845 33.4393 13.2429 33.5235 13.1818C33.607 13.1215 33.6786 13.0461 33.7345 12.9595C33.7893 12.8726 33.8285 12.7767 33.8506 12.6763C33.8732 12.5723 33.8747 12.4649 33.855 12.3603C33.8353 12.2557 33.7948 12.1561 33.7359 12.0675C33.6235 11.8925 33.4489 11.7665 33.2474 11.715C33.142 11.6868 33.0315 11.6834 32.9246 11.7051Z" fill="#00923F"/>
<path d="M36.9144 13.4408L35.3485 12.015V13.4309H34.8926L34.9011 11.0437H34.9506L36.5152 12.4935V11.0508H36.9725L36.9626 13.4365L36.9144 13.4408Z" fill="#00923F"/>
<path d="M37.2116 13.4466L38.854 11.3228L38.8979 11.3312L39.6568 13.9025L39.1684 13.8104L39.0551 13.4083L37.9479 13.1988L37.7001 13.5343L37.2116 13.4466ZM38.241 12.8533L38.9107 12.9793L38.711 12.2077L38.241 12.8533Z" fill="#00923F"/>
<path d="M41.5811 14.1869L41.4396 14.5677L39.8184 13.9915L40.6184 11.7402L41.0431 11.8931L40.3791 13.7635L41.5811 14.1869Z" fill="#00923F"/>
<path d="M42.7903 14.8834L43.1967 14.7093C43.2513 14.8414 43.3166 14.9688 43.3921 15.0902C43.4639 15.207 43.5605 15.3066 43.6753 15.3818C43.7303 15.4192 43.791 15.4474 43.8551 15.4654C43.9072 15.479 43.9612 15.4848 44.0151 15.4823C44.0602 15.4789 44.1042 15.4659 44.1439 15.4441C44.1782 15.4255 44.2073 15.3987 44.2289 15.3662C44.2536 15.3286 44.2641 15.2835 44.2586 15.2388C44.25 15.1912 44.2317 15.1459 44.2048 15.1057C44.1711 15.0547 44.1321 15.0072 44.0887 14.9641C44.0406 14.9146 43.991 14.865 43.9372 14.8155L43.814 14.6994C43.7645 14.6546 43.7172 14.6073 43.6724 14.5578C43.6263 14.503 43.585 14.4443 43.5492 14.3822C43.5125 14.3192 43.4858 14.2509 43.47 14.1798C43.4541 14.1067 43.4517 14.0314 43.4629 13.9575C43.4775 13.8733 43.5099 13.7932 43.5577 13.7224C43.6205 13.6177 43.7105 13.5321 43.8183 13.4747C43.9115 13.4287 44.0145 13.4059 44.1184 13.4081C44.2244 13.4112 44.3289 13.4332 44.4271 13.4732C44.5259 13.5111 44.6207 13.5585 44.7103 13.6148C44.7854 13.6633 44.8568 13.7173 44.9241 13.7762C44.9806 13.8266 45.0318 13.8826 45.077 13.9433C45.1231 13.998 45.1634 14.0573 45.1973 14.1203C45.2313 14.1873 45.2653 14.2623 45.2993 14.3454L44.8901 14.5096C44.8436 14.3943 44.7843 14.2846 44.7131 14.1826C44.6475 14.0908 44.5648 14.0124 44.4696 13.9518C44.4315 13.9281 44.3912 13.9081 44.3492 13.8923C44.3038 13.8738 44.2562 13.861 44.2076 13.8541C44.1602 13.8481 44.1119 13.8519 44.066 13.8654C44.0232 13.8779 43.9868 13.9063 43.9641 13.9447C43.9511 13.9632 43.9424 13.9844 43.9384 14.0066C43.9345 14.0289 43.9356 14.0517 43.9414 14.0736C43.9561 14.1245 43.9796 14.1724 44.0108 14.2151C44.0472 14.2654 44.0874 14.3127 44.1312 14.3567L44.2657 14.4983C44.2987 14.5323 44.3384 14.5705 44.3846 14.613C44.4343 14.6577 44.4815 14.705 44.5262 14.7546C44.5723 14.8084 44.6136 14.8662 44.6494 14.9273C44.6869 14.9889 44.7137 15.0564 44.7287 15.127C44.7436 15.2017 44.7436 15.2787 44.7287 15.3535C44.7103 15.4448 44.6737 15.5315 44.6211 15.6084C44.5639 15.7038 44.4854 15.7848 44.3917 15.8448C44.3064 15.8982 44.209 15.9294 44.1085 15.9354C44.0016 15.9414 43.8946 15.9275 43.7928 15.8944C43.675 15.8549 43.5627 15.8007 43.4586 15.733C43.3652 15.6743 43.2775 15.607 43.1967 15.5319C43.0704 15.4102 42.9677 15.2662 42.8937 15.1071C42.8611 15.0463 42.8272 14.9698 42.7903 14.8834Z" fill="#00923F"/>
<path d="M46.541 17.4519C46.4386 17.4868 46.3319 17.5073 46.2238 17.5128C46.1161 17.5183 46.0081 17.5102 45.9024 17.4887C45.6834 17.4438 45.4807 17.3401 45.3163 17.1885C45.1959 17.077 45.0995 16.9421 45.0331 16.7921C44.8996 16.4984 44.8854 16.1644 44.9935 15.8605C45.0462 15.7025 45.1321 15.5577 45.2455 15.4357C45.3567 15.315 45.4917 15.2186 45.6419 15.1525C45.7874 15.0868 45.944 15.0493 46.1035 15.0421C46.2631 15.0355 46.4226 15.0591 46.5736 15.1115C46.7309 15.1654 46.8755 15.2512 46.9983 15.3635C47.0815 15.4402 47.1539 15.5279 47.2135 15.624C47.3288 15.8093 47.3928 16.0218 47.399 16.2399C47.4038 16.347 47.3933 16.4543 47.3679 16.5585L46.9431 16.3971C46.9531 16.3339 46.956 16.2698 46.9516 16.2059C46.9483 16.1402 46.9374 16.0751 46.919 16.012C46.9013 15.9486 46.8756 15.8877 46.8426 15.8307C46.754 15.6818 46.6132 15.5713 46.4475 15.5207C46.3503 15.4894 46.2478 15.4774 46.146 15.4853C46.0424 15.4926 45.9411 15.519 45.8472 15.5631C45.7514 15.6077 45.6652 15.6707 45.5938 15.7486C45.5212 15.8267 45.4654 15.9187 45.4295 16.019C45.3949 16.1163 45.3772 16.2188 45.3772 16.322C45.3788 16.4242 45.4 16.5251 45.4395 16.6194C45.4792 16.7173 45.5407 16.8049 45.6193 16.8756C45.6682 16.9204 45.7236 16.9576 45.7835 16.9861C45.843 17.0142 45.9058 17.0346 45.9704 17.047C46.0352 17.0599 46.1012 17.0651 46.1672 17.0625C46.2316 17.0595 46.2956 17.0505 46.3584 17.0356L46.541 17.4519Z" fill="#00923F"/>
<path d="M49.5227 18.368L47.6156 19.8094L47.3409 19.4441L48.0984 18.8707L47.3905 17.9305L46.633 18.4969L46.3569 18.1316L48.264 16.6917L48.5387 17.0555L47.7133 17.6799L48.4212 18.6201L49.2467 17.9957L49.5227 18.368Z" fill="#00923F"/>
<path d="M48.3263 21.2308C48.2527 21.0834 48.2103 20.9224 48.2017 20.7579C48.1938 20.598 48.2159 20.4381 48.2668 20.2864C48.3181 20.1353 48.3979 19.9955 48.5019 19.8744C48.6101 19.7482 48.7431 19.6455 48.8926 19.5728C49.0405 19.499 49.202 19.4566 49.367 19.4482C49.6895 19.4291 50.0069 19.5363 50.2519 19.747C50.3768 19.8553 50.4787 19.9875 50.5517 20.1358C50.6246 20.2842 50.6671 20.4456 50.6766 20.6106C50.6846 20.7705 50.6625 20.9304 50.6115 21.0821C50.5602 21.2335 50.4799 21.3735 50.3751 21.4941C50.268 21.6205 50.1359 21.7232 49.9871 21.7957C49.8384 21.8701 49.676 21.913 49.51 21.9217C49.3506 21.9296 49.1911 21.9076 49.0399 21.8566C48.8884 21.8053 48.7481 21.7255 48.6265 21.6216C48.5008 21.5132 48.3986 21.3802 48.3263 21.2308ZM50.1669 20.3246C50.1207 20.2299 50.054 20.1467 49.9715 20.0811C49.8916 20.0174 49.8003 19.9693 49.7025 19.9395C49.6032 19.9085 49.4991 19.8961 49.3953 19.9027C49.1814 19.918 48.9821 20.0167 48.8403 20.1774C48.7721 20.2555 48.7184 20.3452 48.6817 20.4422C48.6462 20.5387 48.629 20.6409 48.6307 20.7437C48.6326 20.8491 48.6582 20.9527 48.7058 21.0467C48.7508 21.1418 48.8172 21.2251 48.8997 21.2903C48.9806 21.3534 49.0722 21.4014 49.1702 21.4318C49.2697 21.4614 49.3737 21.4734 49.4774 21.4672C49.5838 21.4603 49.6877 21.4324 49.7832 21.3851C49.8781 21.3385 49.9628 21.2736 50.0324 21.194C50.1013 21.1158 50.1551 21.0256 50.191 20.9278C50.2268 20.8319 50.2436 20.73 50.2406 20.6276C50.2401 20.5226 50.2159 20.419 50.1698 20.3246H50.1669Z" fill="#00923F"/>
<path d="M49.282 23.7638C49.2384 23.6043 49.2283 23.4375 49.2523 23.2739C49.2976 22.9548 49.4639 22.6654 49.7167 22.4655C49.8473 22.3623 49.9976 22.2871 50.1585 22.2446C50.318 22.2009 50.4848 22.1908 50.6484 22.2149C50.8068 22.2367 50.9596 22.2886 51.0986 22.3678C51.2375 22.4474 51.3596 22.5532 51.4582 22.6793C51.5602 22.8091 51.6351 22.9581 51.6784 23.1174C51.7217 23.2767 51.7325 23.4431 51.7103 23.6067C51.6651 23.9262 51.4982 24.2159 51.2444 24.4151C51.1147 24.5175 50.9653 24.5922 50.8055 24.6346C50.6453 24.6792 50.4774 24.6898 50.3128 24.6657C50.1547 24.6434 50.0024 24.591 49.864 24.5114C49.7257 24.4315 49.6037 24.3263 49.5043 24.2013C49.4011 24.0723 49.3254 23.9234 49.282 23.7638ZM51.2643 23.23C51.239 23.1262 51.1906 23.0294 51.1227 22.9469C51.0563 22.8687 50.9762 22.8035 50.8862 22.7543C50.795 22.7056 50.6957 22.6739 50.5931 22.6609C50.4881 22.6468 50.3813 22.6535 50.2788 22.6807C50.1758 22.7081 50.0794 22.7563 49.9956 22.8223C49.9133 22.8865 49.8429 22.9646 49.7875 23.0531C49.7343 23.1399 49.6978 23.236 49.6799 23.3362C49.6606 23.4402 49.6655 23.5473 49.6941 23.6491C49.72 23.7506 49.7683 23.845 49.8357 23.9252C49.9019 24.0041 49.9826 24.0694 50.0735 24.1178C50.1655 24.1662 50.2651 24.1983 50.368 24.2127C50.4731 24.2264 50.5799 24.2191 50.6822 24.1914C50.7845 24.1637 50.8803 24.1161 50.9641 24.0512C51.0464 23.9876 51.1169 23.91 51.1722 23.8219C51.2243 23.7346 51.2602 23.6387 51.2784 23.5387C51.2969 23.4361 51.2926 23.3307 51.2657 23.23H51.2643Z" fill="#00923F"/>
<path d="M50.2406 27.0048L49.8385 27.0416L49.6757 25.3299L52.0557 25.1047L52.0982 25.5592L50.116 25.7461L50.2406 27.0048Z" fill="#00923F"/>
<path d="M52.7013 35.0554C51.2276 38.2828 48.8572 41.0185 45.8725 42.9368C42.8878 44.855 39.4146 45.8748 35.8667 45.8748C32.3187 45.8748 28.8456 44.855 25.8609 42.9368C22.8762 41.0185 20.5058 38.2828 19.032 35.0554H52.7013Z" fill="#99CC33"/>
<path d="M10.7054 39.6682V52.2L0.213796 54.052L0 54.0024V45.1165L10.7054 39.6682Z" fill="#99CC33"/>
<path d="M10.7054 52.2002V56.5398L0.213806 54.0521L10.7054 52.2002Z" fill="#00923F"/>
<path d="M60.2946 39.6682V52.2L70.7862 54.052L71 54.0024V45.1165L60.2946 39.6682Z" fill="#99CC33"/>
<path d="M60.2946 52.2002V56.5398L70.7862 54.0521L60.2946 52.2002Z" fill="#00923F"/>
<path d="M16.3307 49.5071L16.0263 49.9743L16.9098 50.5492L16.6988 50.8748L15.8153 50.2985L15.5321 50.7389L16.5232 51.3859L16.3137 51.7087L14.9686 50.8323L16.1863 48.9634L17.5313 49.8384L17.3246 50.1555L16.3307 49.5071Z" fill="white"/>
<path d="M17.9108 51.2756L17.6375 49.9065L18.1104 50.1274L18.2831 51.093L19.1326 50.6073L19.6027 50.8268L18.3808 51.4993L18.6456 52.8416L18.1741 52.6207L18.0127 51.6806L17.1872 52.1521L16.7158 51.9312L17.9108 51.2756Z" fill="white"/>
<path d="M20.9761 53.0894C20.9019 53.1567 20.8191 53.2139 20.7298 53.2593C20.6399 53.3033 20.5447 53.3357 20.4466 53.3555C20.3485 53.3769 20.2479 53.3841 20.1478 53.3768C19.8928 53.3608 19.6513 53.2562 19.4654 53.0809C19.3591 52.9795 19.2731 52.8589 19.212 52.7255C19.1507 52.5917 19.1151 52.4476 19.1072 52.3007C19.0987 52.1462 19.1209 51.9915 19.1727 51.8457C19.2245 51.6999 19.3047 51.5658 19.4088 51.4512C19.5086 51.342 19.6282 51.2526 19.7613 51.1878C19.8944 51.1234 20.0386 51.0849 20.1861 51.0746C20.441 51.058 20.6938 51.1306 20.9011 51.2799C20.9827 51.3382 21.056 51.4073 21.1191 51.4852C21.1812 51.5627 21.2331 51.6479 21.2735 51.7386C21.3144 51.8288 21.343 51.924 21.3584 52.0218L20.9336 52.0416C20.9197 51.984 20.8998 51.928 20.8742 51.8745C20.8485 51.8201 20.8167 51.7688 20.7793 51.7216C20.7422 51.6737 20.6989 51.6308 20.6505 51.5942C20.6026 51.5571 20.549 51.528 20.4919 51.5078C20.4013 51.4751 20.3046 51.463 20.2087 51.4724C20.1154 51.4833 20.0248 51.5106 19.9411 51.5531C19.8569 51.5988 19.7812 51.6586 19.7174 51.7301C19.6513 51.8037 19.5999 51.8893 19.5659 51.9822C19.5325 52.0756 19.5176 52.1747 19.522 52.2738C19.525 52.3713 19.5462 52.4673 19.5843 52.557C19.6199 52.6442 19.6729 52.7232 19.7401 52.7892C19.807 52.8586 19.8895 52.9111 19.9808 52.9421C20.0376 52.963 20.0973 52.9749 20.1577 52.9775C20.2181 52.9789 20.2785 52.9732 20.3376 52.9605C20.3969 52.9477 20.4544 52.9278 20.5089 52.901C20.5628 52.875 20.614 52.8437 20.6618 52.8076L20.9761 53.0894Z" fill="white"/>
<path d="M22.096 52.0485L21.9445 52.5851L22.9597 52.8683L22.8549 53.2421L21.8411 52.9589L21.6996 53.4644L22.8422 53.7844L22.7388 54.1553L21.1941 53.7221L21.7958 51.5742L23.342 52.0075L23.2386 52.3714L22.096 52.0485Z" fill="white"/>
<path d="M24.8372 54.2476L24.7537 54.6171L23.2231 54.2702L23.7145 52.0955L24.1208 52.1875L23.713 53.9941L24.8372 54.2476Z" fill="white"/>
<path d="M26.6777 54.5844L26.6097 54.9568L25.0664 54.6736L25.4657 52.479L25.8763 52.554L25.5436 54.3763L26.6777 54.5844Z" fill="white"/>
<path d="M27.5952 53.2282L27.5173 53.7804L28.5608 53.9219L28.507 54.3042L27.4635 54.1626L27.3899 54.6823L28.5665 54.8479L28.5127 55.2288L26.9227 55.0037L27.2356 52.7949L28.8242 53.02L28.7704 53.3938L27.5952 53.2282Z" fill="white"/>
<path d="M30.7879 55.4637L29.4952 54.0054L29.3635 55.3235L28.9487 55.2825L29.1695 53.0667H29.2134L30.5047 54.5491L30.6392 53.2082L31.0541 53.2493L30.8332 55.4665L30.7879 55.4637Z" fill="white"/>
<path d="M33.3126 55.0773C33.26 55.1624 33.1962 55.24 33.1228 55.308C33.0499 55.3758 32.9685 55.4338 32.8807 55.4808C32.7916 55.5282 32.6963 55.563 32.5976 55.5841C32.3478 55.6395 32.0866 55.6065 31.8585 55.4907C31.7282 55.4236 31.612 55.3323 31.5158 55.2217C31.4188 55.1098 31.3439 54.9806 31.295 54.8408C31.2446 54.6955 31.2234 54.5416 31.2326 54.388C31.2418 54.2345 31.2813 54.0842 31.3488 53.946C31.4139 53.8132 31.5038 53.694 31.6135 53.5949C31.7217 53.4958 31.8482 53.4188 31.9859 53.3683C32.2266 53.2819 32.4899 53.2819 32.7306 53.3683C32.9194 53.4344 33.0867 53.5503 33.2149 53.7039C33.2799 53.7791 33.3343 53.8629 33.3763 53.9531L32.9784 54.0947C32.9486 54.0443 32.914 53.9968 32.8751 53.9531C32.8347 53.9078 32.7896 53.867 32.7406 53.8313C32.6912 53.7961 32.6374 53.7676 32.5806 53.7463C32.5243 53.725 32.4651 53.7121 32.405 53.7081C32.3084 53.7019 32.2117 53.7174 32.1218 53.7534C32.0346 53.7892 31.9548 53.841 31.8868 53.9063C31.8189 53.9739 31.7629 54.0524 31.7211 54.1385C31.6787 54.2274 31.6537 54.3235 31.6475 54.4217C31.6413 54.5211 31.6547 54.6207 31.6872 54.7148C31.7194 54.8055 31.7673 54.8899 31.8287 54.964C31.8882 55.0364 31.9607 55.0969 32.0425 55.1424C32.1268 55.1895 32.2208 55.2166 32.3172 55.2217C32.3777 55.2253 32.4383 55.2196 32.497 55.2047C32.5559 55.1901 32.6125 55.1677 32.6655 55.1381C32.7166 55.1089 32.7642 55.0737 32.8071 55.0334C32.8512 54.9933 32.8915 54.9492 32.9275 54.9017L33.3126 55.0773Z" fill="white"/>
<path d="M34.0418 53.7886L34.029 54.3465L35.0824 54.372L35.0725 54.7599L34.0191 54.733L34.0064 55.2583L35.1943 55.2866L35.1844 55.6703L33.5873 55.6321L33.6411 53.4021L35.2453 53.4403L35.2368 53.8184L34.0418 53.7886Z" fill="white"/>
<path d="M38.0357 55.6776L37.7525 55.3944C37.6928 55.4468 37.6289 55.4941 37.5614 55.536C37.5078 55.5707 37.4514 55.601 37.3929 55.6266C37.3474 55.647 37.3 55.6626 37.2513 55.6734C37.2102 55.6818 37.1763 55.6861 37.1508 55.6889C37.0693 55.6962 36.9871 55.6881 36.9087 55.6649C36.7591 55.6213 36.6316 55.5226 36.5519 55.3888C36.5107 55.3199 36.4842 55.2432 36.474 55.1636C36.4548 55.0548 36.4691 54.9427 36.5151 54.8422C36.5635 54.7445 36.6303 54.657 36.7119 54.5845L36.7954 54.5166L36.8818 54.4515C36.8143 54.3736 36.7611 54.2844 36.7246 54.1881C36.6922 54.0975 36.6815 54.0005 36.6935 53.9049C36.6993 53.8225 36.724 53.7426 36.7657 53.6713C36.807 53.6016 36.8619 53.541 36.9271 53.4929C36.9954 53.4447 37.073 53.4114 37.155 53.3952C37.2371 53.3767 37.3222 53.3767 37.4042 53.3952C37.4862 53.4161 37.5625 53.4548 37.6279 53.5085C37.693 53.5623 37.7453 53.6301 37.7808 53.7067C37.8185 53.7813 37.8379 53.8638 37.8375 53.9474C37.8379 54.0325 37.8195 54.1166 37.7837 54.1938C37.7532 54.2608 37.7088 54.3207 37.6534 54.3693C37.5918 54.4212 37.5265 54.4685 37.458 54.5109L37.727 54.7814C37.7964 54.6752 37.8474 54.5916 37.8799 54.5279C37.9125 54.4642 37.9295 54.4302 37.9295 54.4288L38.2948 54.6001L38.2325 54.7205C38.1784 54.8223 38.1189 54.921 38.0541 55.0164L38.0343 55.0447L38.0173 55.073L38.3444 55.4128L38.0357 55.6776ZM37.0984 54.7318C37.0478 54.7602 37.0003 54.7939 36.9568 54.8323C36.9459 54.8417 36.9359 54.8521 36.9271 54.8635C36.9124 54.8802 36.9 54.8987 36.8903 54.9187C36.878 54.9448 36.8694 54.9724 36.8648 55.0008C36.8584 55.0364 36.8584 55.0728 36.8648 55.1084C36.8738 55.1645 36.9036 55.215 36.9483 55.25C36.996 55.29 37.056 55.3125 37.1182 55.3137C37.1619 55.3145 37.2054 55.3083 37.2471 55.2953C37.2828 55.2833 37.317 55.2671 37.349 55.2472C37.3777 55.2294 37.4047 55.209 37.4297 55.1863C37.4517 55.1683 37.4721 55.1484 37.4906 55.1268L37.0984 54.7318ZM37.0701 53.9248C37.0664 53.9866 37.0781 54.0483 37.1041 54.1046C37.1276 54.1607 37.1612 54.212 37.2032 54.2561C37.2301 54.2391 37.2598 54.2193 37.2895 54.1966C37.3173 54.1756 37.3434 54.1524 37.3674 54.1272C37.4253 54.0646 37.4563 53.9817 37.4538 53.8964C37.4543 53.8727 37.4495 53.8492 37.4397 53.8277C37.4299 53.8061 37.4154 53.787 37.3971 53.7718C37.3626 53.7417 37.3184 53.7246 37.2725 53.7237C37.2247 53.7241 37.1783 53.7405 37.1409 53.7704C37.1186 53.7895 37.1007 53.8132 37.0885 53.8398C37.0763 53.8665 37.07 53.8954 37.0701 53.9248Z" fill="white"/>
<path d="M40.5163 55.4961L39.6597 55.5627L39.4884 53.3398L40.345 53.2732C40.6258 53.2408 40.908 53.3201 41.1308 53.4941C41.2455 53.5856 41.3376 53.7024 41.3998 53.8353C41.533 54.1336 41.559 54.4687 41.4734 54.784C41.4334 54.9184 41.3647 55.0426 41.2721 55.148C41.1795 55.2533 41.0651 55.3373 40.9368 55.3942C40.8035 55.4519 40.6612 55.4864 40.5163 55.4961ZM40.0462 55.1535L40.488 55.1195C40.5673 55.1133 40.6457 55.0981 40.7216 55.0742C40.7989 55.0486 40.8696 55.006 40.9283 54.9496C40.9926 54.8824 41.0409 54.8016 41.0699 54.7132C41.1065 54.5907 41.1176 54.462 41.1025 54.3351C41.0972 54.2067 41.0664 54.0806 41.0118 53.9642C40.9703 53.8809 40.9097 53.8086 40.8349 53.7532C40.7673 53.7072 40.6904 53.6768 40.6097 53.664C40.5325 53.6516 40.4541 53.6483 40.3761 53.6541L39.933 53.6881L40.0462 55.1535Z" fill="white"/>
<path d="M42.4179 55.322L42.0031 55.3659L41.7695 53.1501L42.1829 53.1062L42.4179 55.322Z" fill="white"/>
<path d="M42.8357 54.985L43.0141 54.6169C43.1299 54.6779 43.2507 54.729 43.3751 54.7698C43.4951 54.8091 43.6224 54.8208 43.7475 54.8038C43.8083 54.7978 43.8677 54.7816 43.923 54.7557C43.9681 54.7349 44.0092 54.7066 44.0448 54.6721C44.0749 54.6429 44.0976 54.607 44.1114 54.5673C44.1238 54.5329 44.1282 54.4961 44.1241 54.4597C44.1195 54.4183 44.0999 54.38 44.0689 54.3521C44.035 54.3234 43.9954 54.3022 43.9528 54.2898C43.899 54.2747 43.8441 54.2643 43.7885 54.2587L43.596 54.2445L43.4417 54.236C43.3804 54.2328 43.3194 54.2257 43.259 54.2148C43.1943 54.204 43.1307 54.1869 43.0693 54.1638C43.0061 54.1411 42.9468 54.1086 42.8937 54.0675C42.8367 54.026 42.7886 53.9735 42.7521 53.9132C42.7115 53.8443 42.6859 53.7676 42.6771 53.6881C42.6581 53.5766 42.6699 53.4621 42.7111 53.3568C42.7477 53.2674 42.8061 53.1885 42.881 53.1274C42.9556 53.066 43.0404 53.0181 43.1316 52.9858C43.2235 52.954 43.3184 52.9312 43.4148 52.9179C43.4959 52.9066 43.5778 52.9019 43.6597 52.9037C43.7288 52.9059 43.7976 52.9149 43.865 52.9306C43.9303 52.9452 43.9939 52.9666 44.0547 52.9943C44.117 53.0212 44.185 53.0552 44.2586 53.0934L44.0731 53.4573C43.9728 53.4029 43.8663 53.3606 43.756 53.3313C43.6563 53.3046 43.5523 53.2983 43.4501 53.3129C43.4098 53.3198 43.37 53.3297 43.3312 53.3426C43.2878 53.3577 43.2464 53.3782 43.208 53.4035C43.1728 53.4278 43.1426 53.4585 43.1188 53.4941C43.0961 53.5293 43.0875 53.5718 43.0948 53.6131C43.0971 53.634 43.1036 53.6542 43.1141 53.6725C43.1246 53.6908 43.1387 53.7067 43.1556 53.7192C43.1955 53.7467 43.2402 53.7664 43.2873 53.7773C43.343 53.7921 43.3998 53.8021 43.4572 53.807L43.6328 53.8268C43.6767 53.8268 43.7262 53.8353 43.7829 53.8368C43.8431 53.8401 43.9032 53.8467 43.9627 53.8566C44.0269 53.8664 44.09 53.8825 44.151 53.9047C44.2138 53.9267 44.2726 53.9587 44.3252 53.9996C44.3821 54.0434 44.4301 54.0977 44.4667 54.1596C44.5068 54.2364 44.5327 54.3199 44.5432 54.4059C44.5592 54.5086 44.5524 54.6135 44.5234 54.7132C44.4968 54.8014 44.448 54.8813 44.3818 54.9454C44.311 55.0135 44.2285 55.0682 44.1383 55.1068C44.0335 55.1499 43.9235 55.1789 43.8112 55.1932C43.7119 55.2079 43.6113 55.2127 43.511 55.2073C43.4288 55.2026 43.3472 55.1898 43.2675 55.1691C43.1937 55.1498 43.1217 55.1242 43.0523 55.0926C42.9801 55.0601 42.9093 55.0247 42.8357 54.985Z" fill="white"/>
<path d="M46.8964 54.0861C46.866 54.1815 46.8221 54.2721 46.7661 54.3551C46.7115 54.4379 46.6463 54.5131 46.5721 54.5788C46.4978 54.6458 46.4144 54.7021 46.3244 54.7459C46.2317 54.7917 46.133 54.8241 46.0313 54.8422C45.8829 54.8692 45.7305 54.8649 45.5839 54.8295C45.4414 54.7949 45.3068 54.7334 45.1874 54.6482C45.0671 54.5623 44.9642 54.4541 44.8844 54.3297C44.8005 54.2009 44.7433 54.0566 44.7161 53.9054C44.6888 53.7541 44.6922 53.5989 44.7259 53.449C44.7571 53.3042 44.8157 53.1668 44.8986 53.044C44.9809 52.9224 45.0862 52.818 45.2087 52.7368C45.4208 52.5939 45.6764 52.5303 45.9308 52.557C46.0302 52.5668 46.1279 52.5902 46.221 52.6264C46.3137 52.6619 46.4013 52.7095 46.4815 52.768C46.5622 52.8258 46.6346 52.8944 46.6967 52.9718L46.33 53.1984C46.2895 53.1554 46.2444 53.1169 46.1955 53.0837C46.0967 53.0136 45.9827 52.968 45.8628 52.9506C45.8027 52.9414 45.7416 52.9414 45.6816 52.9506C45.5864 52.9665 45.4963 53.0043 45.4182 53.061C45.3423 53.1159 45.2774 53.1846 45.2271 53.2635C45.1754 53.3448 45.1393 53.4351 45.1209 53.5297C45.1018 53.6264 45.1018 53.726 45.1209 53.8228C45.1381 53.9206 45.1747 54.0139 45.2285 54.0975C45.2792 54.1786 45.3439 54.25 45.4196 54.3084C45.4946 54.365 45.5796 54.4068 45.6702 54.4316C45.7625 54.4567 45.8592 54.461 45.9534 54.4443C46.0127 54.4333 46.07 54.4132 46.1233 54.3849C46.177 54.3568 46.227 54.3221 46.272 54.2815C46.3163 54.2384 46.3561 54.191 46.3909 54.1399C46.4241 54.0903 46.4526 54.0377 46.4759 53.9828L46.8964 54.0861Z" fill="white"/>
<path d="M47.8165 54.4357L47.4088 54.5249L46.933 52.3487L47.3394 52.2595L47.8165 54.4357Z" fill="white"/>
<path d="M48.7682 51.9084C48.8688 51.8814 48.974 51.8761 49.0768 51.8928C49.1771 51.9073 49.2735 51.942 49.36 51.9948C49.4463 52.0469 49.5218 52.1152 49.5823 52.1958C49.6478 52.2799 49.6959 52.3762 49.7239 52.479C49.7507 52.5795 49.7589 52.6842 49.748 52.7877C49.7381 52.8852 49.7072 52.9794 49.6573 53.0637C49.6038 53.1542 49.5307 53.2316 49.4435 53.2903C49.3397 53.3603 49.2241 53.4111 49.1023 53.4404L48.6337 53.5621L48.8007 54.2049L48.3972 54.3097L47.8309 52.1505L48.7682 51.9084ZM49.0655 53.0524C49.1174 53.0389 49.1657 53.0143 49.2071 52.9802C49.2449 52.9508 49.2746 52.9123 49.2935 52.8684C49.3131 52.8237 49.3237 52.7756 49.3246 52.7268C49.3255 52.679 49.3198 52.6314 49.3076 52.5852C49.2948 52.5346 49.2732 52.4867 49.2439 52.4436C49.2146 52.4013 49.1776 52.3648 49.1349 52.336C49.0923 52.3064 49.0441 52.2857 48.9933 52.2751C48.9349 52.2639 48.8747 52.2669 48.8177 52.2836L48.325 52.411L48.5275 53.1898L49.0655 53.0524Z" fill="white"/>
<path d="M51.7939 52.9265L51.9086 53.2861L50.4163 53.7647L49.7281 51.6409L50.1246 51.5134L50.6909 53.2762L51.7939 52.9265Z" fill="white"/>
<path d="M52.6616 52.9944L52.2723 53.1359L51.4822 51.0532L51.873 50.9045L52.6616 52.9944Z" fill="white"/>
<path d="M54.9356 51.9891L53.0766 51.3973L53.6429 52.5965L53.2677 52.7735L52.3219 50.7573L52.363 50.7375L54.2249 51.3577L53.6585 50.1372L54.0351 49.9602L54.9809 51.9778L54.9356 51.9891Z" fill="white"/>
<path d="M54.8947 49.8639L55.2019 50.3297L56.0812 49.7492L56.295 50.072L55.4157 50.6525L55.6989 51.09L56.69 50.4359L56.9009 50.7559L55.5672 51.6408L54.3382 49.779L55.6748 48.894L55.8829 49.2098L54.8947 49.8639Z" fill="white"/>
<path d="M39.4063 21.1431C40.7724 21.1431 41.8799 19.8917 41.8799 18.3481C41.8799 16.8046 40.7724 15.5532 39.4063 15.5532C38.0403 15.5532 36.9328 16.8046 36.9328 18.3481C36.9328 19.8917 38.0403 21.1431 39.4063 21.1431Z" fill="#00923F"/>
<path d="M46.0072 35.9545C45.5286 34.8417 44.025 35.1447 43.957 35.1588C43.9669 35.1418 43.9797 34.9748 43.8848 33.6665C45.1902 32.1968 45.8911 30.5643 45.8911 28.1177C45.5102 25.0028 41.5019 23.0022 41.5019 23.0022H36.1613V24.8003H41.5571L41.6336 29.2561L41.5331 29.3821H44.7074V31.4068H40.0606V34.9464H37.8419V34.9054L37.7612 35.0385V29.1456H39.3031V28.1177H37.7612V26.8321H36.5407V28.1177H35.0031V29.1456H36.545V35.0286L33.767 35.0045L32.8566 33.0478H31.53L31.564 36.6639L30.7555 37.8178V46.1898H34.0446V38.3318L35.1872 37.0023L38.4054 36.981V45.8359H40.5051V41.5019C40.5051 41.5019 44.1666 38.4479 44.8943 37.9806C45.6221 37.5134 46.4971 37.0943 46.0072 35.9545ZM42.8371 34.0601H40.8081V32.0354H42.8314L42.8371 34.0601Z" fill="#00923F"/>
</svg>
