<svg width="202" height="202" viewBox="0 0 202 202" fill="none" xmlns="http://www.w3.org/2000/svg">
<mask id="mask0_1_56" style="mask-type:alpha" maskUnits="userSpaceOnUse" x="26" y="26" width="150" height="150">
<circle cx="100.939" cy="100.939" r="74.4676" transform="rotate(-28.4287 100.939 100.939)" fill="#C4C4C4"/>
</mask>
<g mask="url(#mask0_1_56)">
<rect x="68.953" y="10.5684" width="6.74423" height="60.6981" rx="3.37212" transform="rotate(-28.4287 68.953 10.5684)" fill="#8FBF26"/>
<rect x="48.1167" y="3.95361" width="6.74423" height="60.6981" rx="3.37212" transform="rotate(-28.4287 48.1167 3.95361)" fill="#8FBF26"/>
<rect x="106.144" y="79.2686" width="6.74423" height="60.6981" rx="3.37212" transform="rotate(-28.4287 106.144 79.2686)" fill="#8FBF26"/>
<rect x="143.066" y="147.474" width="6.74423" height="60.6981" rx="3.37212" transform="rotate(-28.4287 143.066 147.474)" fill="#8FBF26"/>
<rect x="37.2799" y="111.435" width="6.74423" height="60.6981" rx="3.37212" transform="rotate(-28.4287 37.2799 111.435)" fill="#8FBF26"/>
<rect x="28.9523" y="64.1768" width="6.74423" height="60.6981" rx="3.37212" transform="rotate(-28.4287 28.9523 64.1768)" fill="#8FBF26"/>
<rect x="4.10271" y="50.1484" width="6.74423" height="60.6981" rx="3.37212" transform="rotate(-28.4287 4.10271 50.1484)" fill="#8FBF26"/>
<rect x="64.2699" y="129.417" width="6.74423" height="60.6981" rx="3.37212" transform="rotate(-28.4287 64.2699 129.417)" fill="#8FBF26"/>
<rect x="90.3243" y="18.1716" width="6.74423" height="60.6981" rx="3.37212" transform="rotate(-28.4287 90.3243 18.1716)" fill="#8FBF26"/>
<rect x="127.515" y="86.8718" width="6.74423" height="60.6981" rx="3.37212" transform="rotate(-28.4287 127.515 86.8718)" fill="#8FBF26"/>
<rect x="50.3237" y="71.78" width="6.74423" height="60.6981" rx="3.37212" transform="rotate(-28.4287 50.3237 71.78)" fill="#8FBF26"/>
<rect x="85.6413" y="137.021" width="6.74423" height="60.6981" rx="3.37212" transform="rotate(-28.4287 85.6413 137.021)" fill="#8FBF26"/>
<rect x="89.2209" y="-15.7417" width="6.74423" height="60.6981" rx="3.37212" transform="rotate(-28.4287 89.2209 -15.7417)" fill="#8FBF26"/>
<rect x="126.411" y="52.9585" width="6.74423" height="60.6981" rx="3.37212" transform="rotate(-28.4287 126.411 52.9585)" fill="#8FBF26"/>
<rect x="49.2202" y="37.8669" width="6.74423" height="60.6981" rx="3.37212" transform="rotate(-28.4287 49.2202 37.8669)" fill="#8FBF26"/>
<rect x="84.5378" y="103.107" width="6.74423" height="60.6981" rx="3.37212" transform="rotate(-28.4287 84.5378 103.107)" fill="#8FBF26"/>
<rect x="15.6742" y="135.274" width="6.74423" height="60.6981" rx="3.37212" transform="rotate(-28.4287 15.6742 135.274)" fill="#8FBF26"/>
<rect x="126.646" y="21.5164" width="6.74423" height="60.6981" rx="3.37212" transform="rotate(-28.4287 126.646 21.5164)" fill="#8FBF26"/>
<rect x="163.836" y="90.2166" width="6.74423" height="60.6981" rx="3.37212" transform="rotate(-28.4287 163.836 90.2166)" fill="#8FBF26"/>
<rect x="164.94" y="124.13" width="6.74423" height="60.6981" rx="3.37212" transform="rotate(-28.4287 164.94 124.13)" fill="#8FBF26"/>
<rect x="81.5614" y="65.7341" width="6.74423" height="60.6981" rx="3.37212" transform="rotate(-28.4287 81.5614 65.7341)" fill="#8FBF26"/>
<rect x="12.6978" y="97.9006" width="6.74423" height="60.6981" rx="3.37212" transform="rotate(-28.4287 12.6978 97.9006)" fill="#8FBF26"/>
<rect x="118.752" y="134.434" width="6.74423" height="60.6981" rx="3.37212" transform="rotate(-28.4287 118.752 134.434)" fill="#8FBF26"/>
<rect x="45.6074" y="158.693" width="6.74423" height="60.6981" rx="3.37212" transform="rotate(-28.4287 45.6074 158.693)" fill="#8FBF26"/>
</g>
</svg>
